<svg xmlns="http://www.w3.org/2000/svg" viewBox="0 0 989.59 178.23"><defs><style>.cls-1{fill:#212121;}</style></defs><title>Asset 2</title><g id="Layer_2" data-name="Layer 2"><g id="underline"><g id="bottom_line"><path class="cls-1" d="M5.8,178.11h938.3c12.68,0,25.38.26,38.06,0,.55,0,1.1,0,1.64,0,7.72,0,7.73-12,0-12H45.5c-12.68,0-25.38-.26-38.06,0-.55,0-1.1,0-1.64,0-7.72,0-7.73,12,0,12Z"/></g><g id="top_line"><path class="cls-1" d="M5.8,12.11h938.3c12.68,0,25.38.26,38.06,0,.55,0,1.1,0,1.64,0,7.72,0,7.73-12,0-12H45.5C32.82.11,20.11-.14,7.44.11c-.55,0-1.1,0-1.64,0-7.72,0-7.73,12,0,12Z"/></g></g></g></svg>