<svg id="Layer_1" data-name="Layer 1" xmlns="http://www.w3.org/2000/svg" viewBox="0 0 400.04 169.33"><defs><style>.cls-1{fill:#fdfdfd;}</style></defs><title>Signature_small</title><g id="NzGOKG"><path class="cls-1" d="M63.78,139.15c.27,1.1.48,2.22.81,3.31a4.88,4.88,0,0,1-3.82,6c-1.73.43-4.15-2.54-3.44-4.38.82-2.12.35-4.21.3-6.32s-.38-4.12-.44-6.19c-.1-3.23-.11-6.46-.09-9.69,0-1.44.26-2.88.27-4.32a8.6,8.6,0,0,0-.35-2.69,20.51,20.51,0,0,1-.83-7.75,28.92,28.92,0,0,0-.52-4.59c-.08-.8,0-1.61,0-2.42a48.83,48.83,0,0,0-.05-5.49,57.93,57.93,0,0,1-.57-11c.06-.89-.37-1.8-.35-2.7,0-1.71.27-3.41.4-5.12A6.8,6.8,0,0,0,55,75a21.39,21.39,0,0,1-.12-3.12c.14-1.42.14-1.45-1.21-1.11-.93.24-1.95.17-2.84.49-2.55.91-5,2.19-7.58,2.86-3.8,1-7.31,2.66-11,3.9-4,1.34-8,2.65-11.93,4-1.76.62-3.45,1.41-5.18,2.11a7.88,7.88,0,0,1-1.92.64,5,5,0,0,0-3,1.29c-1.36,1.24-4.22.86-5.39-.53A12.86,12.86,0,0,0,3.8,84.39a2.31,2.31,0,0,1-.24-3.29c.06-.07.16-.13.2-.21,1.85-4.28,5.71-3.2,9.09-3.46a5,5,0,0,0,2.31-.54A10.67,10.67,0,0,1,20.3,75c.79-.07,1.49-.85,2.27-1.21a4.89,4.89,0,0,1,1.54-.28,6.59,6.59,0,0,0,1.54,0c1.73-.62,3.39-1.41,5.13-2s3.71-1.05,5.57-1.6A58.64,58.64,0,0,0,45,67.13a46.75,46.75,0,0,1,6.07-1.85c1.1-.35,2.16-.85,3.26-1.21,1.69-.56,3.39-1.08,5.09-1.59,2.72-.82,5.46-1.58,8.16-2.43,2.12-.67,4.19-1.47,6.3-2.17,4.09-1.35,8.18-2.67,12.27-4C89,52.94,91.87,52,94.7,51c1.26-.44,2.42-1.18,3.68-1.61,2.19-.75,4.45-1.27,6.63-2,4.6-1.62,9.33-3,13.68-5.15,2.58-1.27,5.45-1.6,7.94-3.28,1.91-1.29,4.62-1.41,7-2.07.78-.22,1.55-.51,2.33-.73,1.86-.52,3.75-1,5.59-1.54,2.62-.84,5.19-1.82,7.8-2.68,1.83-.6,3.68-1.18,5.56-1.64,2.76-.67,5.53-1.32,8.32-1.81,3.27-.58,6.58-1,9.87-1.47h.15c.95,0,3.2,2,3.63,3.19a2.46,2.46,0,0,1-1.16,3,21.26,21.26,0,0,1-3,1.28A20.2,20.2,0,0,0,169,36.34a1.25,1.25,0,0,1-1.64.15l-1.75-1c-2.36-1.33-4.75-.43-7.08,0-3,.58-5.93,1.41-8.87,2.21-2.05.56-4.07,1.25-6.1,1.89l-.13.06c-2.86.84-5.75,1.6-8.58,2.53-3.93,1.29-7.83,2.69-11.73,4.07q-3.73,1.31-7.43,2.68c-1.9.7-3.75,1.52-5.66,2.17-2.78.94-5.6,1.78-8.4,2.64a28,28,0,0,0-3.91,1.21A65.12,65.12,0,0,1,89.08,58c-1.56.48-2.95,1.77-4.81,1.12-.28-.1-.75.38-1.14.57-1.08.51-2.16,1-3.26,1.49-.5.21-1.1.17-.73-.6.29-.6,0-.69-.31-.4s-2.09-.1-1,1.37a2.24,2.24,0,0,1-.46.3c-3.32,1.16-6.67,2.24-10,3.49-2.38.9-4.67,2-7,3.05-.88.38-1.8.68-2.68,1.08-.69.31-1.32.67-.19,1.34a1.22,1.22,0,0,1,0,1.07c-1,.56-.81,1.33-.69,2.25.31,2.45.42,4.92.71,7.37.17,1.37.57,2.7.83,4.06.17.93.26,1.88.39,2.83.19,1.42.43,2.85.57,4.27.23,2.26.35,4.53.61,6.78.36,3.21.81,6.4,1.22,9.6.25,1.91.55,3.81.73,5.72a10,10,0,0,1-.15,2.57,5,5,0,0,0,.22,2.93,11.24,11.24,0,0,1,.3,3.48c0,.13-.17.35-.14.39,1.37,1.26-.23,3.1.88,4.43a2.1,2.1,0,0,1,.29,1.25c0,1.68-.12,3.37,0,5a12.17,12.17,0,0,0,.63,2.28c.16.63.25,1.27.38,1.91Z" transform="translate(-2.98 -2.46)"/></g><g id="_1AA4DE" data-name="1AA4DE"><path class="cls-1" d="M162.09,126.06c-.36-1.21.23-1.64,1.35-1.84,1.41-.25,2.78-.76,4.19-1a2.93,2.93,0,0,1,3.54,3.78,5.76,5.76,0,0,1-1.37,3c-1.73,1.76-2.11,4.21-3.06,6.37-1.06,2.38-1.88,4.87-2.82,7.31-1.18,3.06-2.33,6.14-3.58,9.18-1,2.47-1.26,5.08-2.09,7.65-.88,2.77-3.63,8.64-5.22,10.61-1.06.63-1.87,1.1-3.1.34a3.82,3.82,0,0,1-1.62-2.75c-.35-1.44,2.14-8.86,2.88-10.15.89-1.55,1.46-3.12,2.24-4.73a36.41,36.41,0,0,0,1.47-3.61c.26-.72.34-1.51.59-2.25.64-1.86.28-2.71-1.55-3.47-3.58-1.49-5.45-4.43-7.1-7.77-1.32-2.67-1.29-5.69-2.62-8.3-.07-.13-.08-.29-.15-.41-1.44-2.37-1-5-.9-7.53,0-1.39,1.52-3,2.58-3.12a3.24,3.24,0,0,1,3.49,2.64,19.88,19.88,0,0,1,.93,5.25c-.05,1.17.73,2.37,1.06,3.57a58.13,58.13,0,0,0,1.76,6.56,36,36,0,0,0,3.11,5.19c.13.2.34.34.48.54s.44.67.66,1a5.56,5.56,0,0,0,.91-1.25c.7-1.89,1.41-3.79,1.94-5.73.71-2.61,1.27-5.25,1.87-7.89A8.08,8.08,0,0,0,162.09,126.06Z" transform="translate(-2.98 -2.46)"/><path class="cls-1" d="M91.89,144.83a1.88,1.88,0,0,0-.69.17,6.3,6.3,0,0,1-6.93-.31c-3.19-2.25-5.58-5.23-5.64-9.48,0-2.27-.31-4.55-.18-6.81a9,9,0,0,1,1.25-3.08c.36-.74.88-1.4,1.25-2.13a19,19,0,0,0,1-2.31c.26-.74.61-1.35,1.46-1.42a6.25,6.25,0,0,0,3.76-2l1.27-1.2c1.11-1,2.31-1.6,3.82-.84a1.79,1.79,0,0,0,1.11.28c1.74-.52,2.51.83,3.61,1.67,2.41,1.84,3.45,4.48,4.77,7.06,1,2,.59,4.09,1.13,6.07.63,2.3-.43,4.28-1.27,6.3-.44,1.07-.87,2.15-1.3,3.23a1.14,1.14,0,0,1-.17.4c-2.16,2.08-4.41,4-7.53,4.47A4.37,4.37,0,0,1,91.89,144.83Zm4.44-13.38c-.32-1.42-.71-3.26-1.19-5.08-.1-.38-.49-.93-.79-1-1.46-.16-3.06-.57-4.37-.14a6.82,6.82,0,0,0-5,6.88c0,.63.17,1.26.12,1.88-.15,1.85,1.16,3.11,1.79,4.65.07.17.4.27.62.32a7.88,7.88,0,0,0,6.44-1.41C95.92,136.28,96,134,96.33,131.45Z" transform="translate(-2.98 -2.46)"/><path class="cls-1" d="M127.65,138.61c-.47-1.36-.91-2.73-1.43-4.06a1,1,0,0,0-.82-.43,1.26,1.26,0,0,0-.81.68c-.78,2.16-1.43,4.38-2.28,6.52a3.6,3.6,0,0,1-2.77,2.47c-1.23.22-2.43.59-3.64.88a1.7,1.7,0,0,1-2-1,6,6,0,0,1-.91-4.42,5.09,5.09,0,0,0-.81-4.28c-.55-.72-.43-1.91-.75-2.84-.39-1.13-1.44-2.16-.22-3.4.12-.12,0-.55-.12-.81a2.42,2.42,0,0,1,1.48-3.12,4.39,4.39,0,0,1,3.63-.33c.77.31,1.37.59,1.64,1.45.11.34.55.58.84.86.23-.27.45-.55.69-.81a4.63,4.63,0,0,0,1.54-3.47c0-.32.33-.69.59-1,1-1.12,4.86-1,6-.07a8,8,0,0,1,2.67,4.35c.31,1.22,1.46,2.2,1.07,3.63,0,.08,0,.25.09.26,1.74.57.86,2.33,1.54,3.38,0,0,0,.1,0,.14a9.54,9.54,0,0,1,1.55,4.61c0,.45.54.89.78,1.36s.48,1.08.71,1.63c.07.17,0,.45.17.53,1.3.84.88,2,.57,3.11-.45,1.64-1.7,2.06-3.16,1.11a3.56,3.56,0,0,0-1.74-.6,2.84,2.84,0,0,1-2.87-2c-.41-1.07-.95-2.09-1.37-3.16a3.87,3.87,0,0,1-.09-1.13Z" transform="translate(-2.98 -2.46)"/></g><g id="p6lzZ5"><path class="cls-1" d="M251.46,128.94a4,4,0,0,1-.19,3.62,1.71,1.71,0,0,0-.15.37c-.54,2.77-1.17,5.53-1.59,8.31a25,25,0,0,0,.16,6.87,27.92,27.92,0,0,0,2.11,7.56c1.33,3.1,3.53,5.45,7.43,5.77a9.58,9.58,0,0,0,5.5-.71,4.65,4.65,0,0,0,1.55-1.22,18.72,18.72,0,0,0,3.21-5.38c.61-1.83,1.57-3.61,2.29-5.46a36.5,36.5,0,0,0,2-11.2c.16-2.74.23-5.5.12-8.24a54.72,54.72,0,0,0-.75-7.1c-.47-2.77-1.3-5.49-1.7-8.27a11,11,0,0,0-1.06-3.74,17.88,17.88,0,0,1-1.89-6.4,11.69,11.69,0,0,0-1-3c-2.08-5-4.24-10-6.24-15-.82-2.07-1.32-4.26-2-6.4-.09-.29-.13-.67-.33-.84-1.16-.93-1.15-2.35-1.57-3.58-.37-1.08-.62-2.21-1-3.28-.53-1.44-1.11-2.87-1.77-4.26a12.26,12.26,0,0,0-1.21-1.67,6.39,6.39,0,0,1-.84-1.34c-.5-1.32-.92-2.68-1.37-4a5.28,5.28,0,0,0-.24-.62c-1.25-2.58-2.55-5.13-3.74-7.74-1-2.16-1.72-4.44-2.76-6.58s-2.34-4.13-3.46-6.22c-.69-1.28-1.29-2.62-1.88-4a24.14,24.14,0,0,0-1.78-4.1,13.78,13.78,0,0,1-2-5.51A28.45,28.45,0,0,0,232,17.69a7.77,7.77,0,0,1-.85-5,23.39,23.39,0,0,0-.06-3.27,3.73,3.73,0,0,1,.4-1.46A8.83,8.83,0,0,1,232.65,6a15,15,0,0,1,2.09-2,4.94,4.94,0,0,1,3.55-1.35c.91.07,1.84-.21,2.77-.22a7.1,7.1,0,0,1,4.2.92,3,3,0,0,0,1.48.53c2.7.1,4.91,1.41,7,2.87q3.85,2.69,7.53,5.63A26.87,26.87,0,0,1,264,15.31a10,10,0,0,0,1,.9c1.22,1,2.92,1.78,3.58,3.08.88,1.72,2.39,2.7,3.49,4.11s2.77,2.74,3.8,4.34c.65,1,1.62,1.28,2.37,2a19.43,19.43,0,0,1,2.18,2.76c.16.21.32.57.5.59,1.61.17,2,1.56,2.76,2.62a2.28,2.28,0,0,1-1.51,3.71A4.32,4.32,0,0,1,278,37.73c-1-1.09-2-2.24-3-3.36-.12-.13-.23-.33-.37-.36-1.79-.36-2.58-2-3.63-3.12-2.15-2.38-4-5-6-7.5-1.1-1.31-2.39-2.45-3.6-3.67a24.9,24.9,0,0,0-2.16-2.12,68.81,68.81,0,0,1-6-4.6,14.82,14.82,0,0,0-5.25-3.22,45.43,45.43,0,0,0-5.19-1.51,6.17,6.17,0,0,0-5.11,1.31,3.8,3.8,0,0,0-1.13,2.3,26.19,26.19,0,0,0-.39,4.49c0,.62.6,1.24.59,1.86-.05,2.68,1.68,4.71,2.46,7.08.45,1.38.84,2.78,1.39,4.12.84,2.07,1.81,4.08,2.7,6.13.47,1.08.8,2.23,1.33,3.27,1,2,2.22,3.92,3.23,5.94a17.79,17.79,0,0,1,.79,2.72,11.51,11.51,0,0,0,.83,2.28c.88,1.55,2.23,2.84,2.37,4.78a5.39,5.39,0,0,0,.71,1.55c1.57,3.5,3.11,7,4.72,10.49A16.74,16.74,0,0,0,259,69.69a8.27,8.27,0,0,1,1.42,3.21,44,44,0,0,0,1.65,4.68c0,.12.18.26.15.36-.46,2,1.07,3.16,1.75,4.68.81,1.85,1.56,3.73,2.35,5.6a2.8,2.8,0,0,0,.55,1c1.46,1.26,2,3,2.49,4.74.42,1.42.66,2.89,1.1,4.31a11.69,11.69,0,0,0,1.14,2.45,28.42,28.42,0,0,1,3,8.07,39.75,39.75,0,0,0,1.45,3.94c.2.57.28,1.18.43,1.77.6,2.43,1.33,4.84,1.78,7.3a35.07,35.07,0,0,1,1,8.29c-.29,4.41-.13,8.88-1.22,13.24-.6,2.39-.72,4.89-1.22,7.3a15.43,15.43,0,0,1-1.29,3.18c-1.12,2.44-2.17,4.92-3.46,7.27a12.07,12.07,0,0,1-2.42,2.52,24,24,0,0,1-2.06,1.83,6.47,6.47,0,0,1-4.48,1.35c-2.25-.14-4.53,0-6.75-.35a10.17,10.17,0,0,1-5.92-3,23.59,23.59,0,0,1-2.93-3,11.62,11.62,0,0,1-2.28-4.76c-.14-1-.76-1.9-.87-2.88-.25-2.26-.35-4.54-.46-6.81a36.18,36.18,0,0,1,0-4.08,6.67,6.67,0,0,1,.63-1.79,4.31,4.31,0,0,0,.26-.59c.31-1.44.51-2.92.9-4.33a17.67,17.67,0,0,1,5.19-8.73c1.83-1.63,3.56-3.37,5.37-5,.18-.17.52-.17.79-.25,0,.27.2.64.08.8q-2.34,3.18-4.76,6.3A4,4,0,0,1,251.46,128.94Z" transform="translate(-2.98 -2.46)"/><path class="cls-1" d="M401.78,150.51c-2.3.32-3.3-1.1-4.3-2.68a57.65,57.65,0,0,0-5.21-7.6c-1.44-1.61-2.79-3.76-5.46-3.81a2,2,0,0,0-1.85.66c-1.31,1.52-2.73,8.49-5.47,8.29-.47-.14-1-1-1.28-1.41-.89-1.39-1.76-8.3-1.77-10.11a25.82,25.82,0,0,0-.67-4.2c-.31-1.77-.58-3.55-1-5.31-.24-1.11-.71-2.17-1-3.28a31,31,0,0,1-.59-3.33c-.19-1.5-.37-3-.44-4.51,0-.7.24-1.41.28-2.11a10.46,10.46,0,0,0-.16-1.63c0-.4-.08-.8-.13-1.2s0-.82-.18-1-.71,0-1,.12c-1.22.79-2.68,1.28-3.42,2.69a1.34,1.34,0,0,1-.63.57c-2.29.94-4.61,1.83-6.9,2.76-1.72.7-3.41,1.49-5.14,2.18-.75.3-.78.83-.76,1.5,0,1,0,1.94,0,2.91a1.62,1.62,0,0,0,.1.7c1.24,2.54,1.6,5.36,2.36,8,.66,2.31.44,4.87.67,7.31a31,31,0,0,0,.61,4.51c.56,2.3-.06,4.72-1.72,5.61-.95.51-2,.93-2.71-.37a1.69,1.69,0,0,0-.65-.55c-2.17-1.19-2.64-2.23-2.25-4.65a12.92,12.92,0,0,0,.15-3c-.15-2.23-.5-4.44-.59-6.66-.08-2,.21-4,.09-6s-.54-4.24-.83-6.36a2.28,2.28,0,0,0-2.35-2.2,8.16,8.16,0,0,1-3.56-.87,28.69,28.69,0,0,1-4-3.55,8.92,8.92,0,0,1-1.11-1.42,11.58,11.58,0,0,1-.87-1.43c-.44-.89-.77-1.84-1.27-2.69-.88-1.5-.2-2.86.3-4.22.4-1.11,1.21-1.49,2.48-1.72a3,3,0,0,1,2.92.95,3.85,3.85,0,0,1,1.52,2.92c0,1.34.19,2.67,1.89,3.16.42.12.62,1,.94,1.47a7.66,7.66,0,0,0,.55.68c.21-.27.62-.56.59-.81-.24-2.64-.55-5.27-.85-7.91-.08-.71-.24-1.41-.31-2.11-.11-1-.16-2.08-.26-3.12-.13-1.37-.28-2.73-.42-4.09,0-.09,0-.21,0-.28-.94-1.59-.73-3.4-1-5.12-.25-1.53-.42-3.08-.68-4.61-.29-1.69-.58-3.38-1-5-.54-2.3-1.14-4.59-1.77-6.87A7.16,7.16,0,0,0,340.9,68c-1.1-1.81-1.16-4.21-3.27-5.49-.56-.34-.76-1.28-1.13-1.94a6.13,6.13,0,0,0-.53-1,2.8,2.8,0,0,1,.61-4.38c2-1.34,4-1,6,.87a16.64,16.64,0,0,0,1.82,1.31l.39-.3c.7,2.44,1.41,4.88,2.09,7.32.39,1.39,1.05,2.7.53,4.27-.17.52.51,1.29.71,2A26.83,26.83,0,0,1,349,74c.49,3.1.86,6.21,1.33,9.31.52,3.48,1.16,6.95,1.62,10.43s.68,7,1.15,10.47a21.32,21.32,0,0,0,1.2,4.38,1.59,1.59,0,0,0,1.33.75,25.65,25.65,0,0,0,5.38-1.26,67.93,67.93,0,0,0,6.5-3.34c.26-.14.41-.5.61-.75a19.61,19.61,0,0,1,2-2.4,2.8,2.8,0,0,0,1.08-2.36c-.17-3.14-.39-6.27-.53-9.41-.09-2-.09-3.91-.08-5.86,0-.29.18-.74.39-.83a15.57,15.57,0,0,1,3.23-1A2.17,2.17,0,0,1,376.8,84c.31,1.67.5,3.37.7,5.06.3,2.55.56,5.11.82,7.67a4.88,4.88,0,0,1-.06,1.13,7.43,7.43,0,0,0,.23,3.63c.44,1.25.18,2.73.28,4.11.13,1.84.33,3.68.43,5.52.06,1-.15,2.1,0,3.12a45.28,45.28,0,0,0,1,5.61c.59,2.3,1.38,4.55,2.09,6.82l.42,1.37c.3,1,.79,1.31,2,1.3a14.22,14.22,0,0,1,8.92,3.29c.23.17.42.45.67.53,2.09.65,2.71,2.58,3.6,4.21,1.3,2.37,2.47,4.8,3.64,7.24a33.86,33.86,0,0,1,1.54,3.84c.11.32-.16.82-.37,1.17A5.18,5.18,0,0,1,401.78,150.51Z" transform="translate(-2.98 -2.46)"/><path class="cls-1" d="M318.77,142c.49-.26.65-.36.82-.43l1.83-.82c.13.62.29,1.23.39,1.85.14.86.16,1.76.38,2.6a7.37,7.37,0,0,1-4.24,8.1c-1.73.61-3.72-.87-4.07-2.68-.47-2.45-.58-5-2.07-7.23a5.09,5.09,0,0,1-.6-2.28,5,5,0,0,0-1.34-3.32c-.82,1.87-1.65,3.7-2.42,5.55a7.3,7.3,0,0,1-4.76,4,1.22,1.22,0,0,1-1.07-.15,14.82,14.82,0,0,1-2.42-3.21,11.82,11.82,0,0,1-.58-3.46c-.2-1.6-.78-2.33-2.26-2.59-.53,1.44-1.08,2.9-1.61,4.37-.4,1.09-1.1,3.16-2.32,3.23a6.39,6.39,0,0,0-2.06.52c-1.2.5-1.66-1.46-2.13-2.54a12.63,12.63,0,0,1-.62-6.33c.2-2.46.29-4.93.52-7.38.11-1.23-.56-2-1-3-.68-1.46-.45-3.34-.59-5,0-.17.13-.35.23-.52a2.34,2.34,0,0,1,3.83-.53c.78.83,1.4,1.82,2.24,2.56a3.36,3.36,0,0,0,2.08.89c2.28-.09,3.76.63,4.77,2.64l.06.13c.89,1.6,2.59,2.74,2.65,4.8a.65.65,0,0,0,.32.46c.39.2,1,.57,1.17.43a1.61,1.61,0,0,0,.61-1.24,2.91,2.91,0,0,1,2.84-3.47,7,7,0,0,0,1.51-.4c2.08-.76,3.2-.27,4.34,1.62.77,1.29,1.76,2.44,2.64,3.67a3.1,3.1,0,0,1,.32.61c.74,1.74,1.48,3.48,2.19,5.23a4.94,4.94,0,0,1,.24,1.21C318.63,140.42,318.68,141.06,318.77,142Z" transform="translate(-2.98 -2.46)"/><path class="cls-1" d="M334.13,139.48a12.51,12.51,0,0,0-.43,2.51c.09,1.82-1.32,2.44-2.47,3.27a.91.91,0,0,1-.89-.09c-.91-1.14-1.86-2.19-1.75-3.9a18.82,18.82,0,0,0-.46-4.93,3.11,3.11,0,0,0-2.2-2.38,13.92,13.92,0,0,1-3.15-1.88,2.27,2.27,0,0,1-.82-2.56,3.88,3.88,0,0,1,4.48-3.31,3.15,3.15,0,0,0,1.13-.08c1.57-.45,2.58.33,3.62,1.39a9.56,9.56,0,0,1,2.62,5.93C334,135.54,334,137.64,334.13,139.48Z" transform="translate(-2.98 -2.46)"/><path class="cls-1" d="M328.2,100.82c-1.46-.23-2.58-.47-2.94-1.84a.43.43,0,0,0-.16-.23c-.74-.49-1.61-1.09-1.11-2a8.36,8.36,0,0,1,2.18-2.52,32.17,32.17,0,0,1,3.29-2,3.22,3.22,0,0,1,3.38,0,1.76,1.76,0,0,1,.8,2.23,33.39,33.39,0,0,1-2.32,5C330.63,100.61,329.18,100.73,328.2,100.82Z" transform="translate(-2.98 -2.46)"/><path class="cls-1" d="M257.9,120.28c0,.05,0,.09,0,.11s-.06,0-.09,0Z" transform="translate(-2.98 -2.46)"/></g></svg>